<?xml version="1.0" encoding="iso-8859-1"?>
<!-- Uploaded to: SVG Repo, www.svgrepo.com, Generator: SVG Repo Mixer Tools -->
<svg fill="#000000" height="800px" width="800px" version="1.1" id="Layer_1" xmlns="http://www.w3.org/2000/svg" xmlns:xlink="http://www.w3.org/1999/xlink" 
	 viewBox="0 0 510.604 510.604" xml:space="preserve">
<g>
	<g>
		<path d="M476.036,71.938c-34.278-36.719-71.782-55.33-111.488-55.33c-45.039,0-85.666,27.46-109.449,72.832
			c-23.723-45.372-64.051-72.832-108.638-72.832c-39.492,0-75.938,18.074-111.411,55.262
			C-5.628,114.502-22.891,212.652,50.53,286.056c34.859,34.867,197.197,203.622,198.827,205.32c1.613,1.673,3.84,2.62,6.153,2.62
			c2.321,0,4.54-0.947,6.153-2.62c1.63-1.698,163.977-170.453,198.835-205.32C533.192,213.361,516.236,114.988,476.036,71.938z
			 M408.46,242.263c0,16.469-13.397,29.867-29.867,29.867c-5.222,0-10.052-1.468-14.327-3.823
			c-3.84,12.066-15.019,20.89-28.339,20.89c-16.469,0-29.867-13.397-29.867-29.867v-12.322h-102.4v12.322
			c0,16.469-13.397,29.867-29.867,29.867c-13.321,0-24.499-8.823-28.339-20.89c-4.275,2.355-9.105,3.823-14.327,3.823
			c-16.469,0-29.867-13.397-29.867-29.867v-42.667c0-16.469,13.397-29.867,29.867-29.867c5.222,0,10.052,1.468,14.327,3.823
			c3.84-12.066,15.019-20.89,28.339-20.89c16.469,0,29.867,13.397,29.867,29.867v13.278h102.4V182.53
			c0-16.469,13.397-29.867,29.867-29.867c13.321,0,24.499,8.823,28.339,20.89c4.275-2.355,9.105-3.823,14.327-3.823
			c16.469,0,29.867,13.397,29.867,29.867V242.263z"/>
	</g>
</g>
</svg>